<svg width="281" height="386" viewBox="0 0 281 386" fill="none" xmlns="http://www.w3.org/2000/svg">
<path fill-rule="evenodd" clip-rule="evenodd" d="M100 0C83.4315 0 70 13.4315 70 30V32H61C44.4315 32 31 45.4315 31 62V70H30C13.4315 70 0 83.4315 0 100V356C0 372.569 13.4315 386 30 386H96.9257C96.9238 385.832 96.9229 385.664 96.9229 385.495C96.9229 361.24 116.586 341.577 140.841 341.577C165.096 341.577 184.759 361.24 184.759 385.495C184.759 385.664 184.758 385.832 184.756 386H251C267.569 386 281 372.569 281 356V100C281 83.4315 267.569 70 251 70H250V62C250 45.4315 236.569 32 220 32H211V30C211 13.4315 197.569 0 181 0H100ZM149.423 19.5817C149.423 24.3213 145.581 28.1634 140.841 28.1634C136.102 28.1634 132.259 24.3213 132.259 19.5817C132.259 14.8422 136.102 11 140.841 11C145.581 11 149.423 14.8422 149.423 19.5817Z" fill="black"/>
</svg>
